<?xml version="1.0" encoding="UTF-8" standalone="no"?>
<!DOCTYPE svg PUBLIC "-//W3C//DTD SVG 1.1//EN"
 "http://www.w3.org/Graphics/SVG/1.1/DTD/svg11.dtd">
<!-- Generated by graphviz version 2.40.1 (20161225.0304)
 -->
<!-- Title: kubegraph Pages: 1 -->
<svg width="641pt" height="530pt"
 viewBox="0.00 0.00 641.00 530.00" xmlns="http://www.w3.org/2000/svg" xmlns:xlink="http://www.w3.org/1999/xlink">
<g id="graph0" class="graph" transform="scale(1 1) rotate(0) translate(72 458)">
<title>kubegraph</title>
<polygon fill="#ffffff" stroke="transparent" points="-72,72 -72,-458 569,-458 569,72 -72,72"/>
<!-- v1.Pod~my&#45;pod -->
<g id="node1" class="node">
<title>v1.Pod~my&#45;pod</title>
<image xlink:href="icons/pod.svg" width="137px" height="134.314px" preserveAspectRatio="xMinYMin meet" x="180" y="-370.157"/>
<text text-anchor="middle" x="248.5" y="-223.9" font-family="Times,serif" font-size="13.00" fill="#000000">my&#45;pod</text>
</g>
<!-- v1.PersistentVolumeClaim~my&#45;pvc -->
<g id="node2" class="node">
<title>v1.PersistentVolumeClaim~my&#45;pvc</title>
<image xlink:href="icons/pvc.svg" width="137px" height="134.314px" preserveAspectRatio="xMinYMin meet" x="0" y="-150.157"/>
<text text-anchor="middle" x="68.5" y="-3.9" font-family="Times,serif" font-size="13.00" fill="#000000">my&#45;pvc</text>
</g>
<!-- v1.Pod~my&#45;pod&#45;&gt;v1.PersistentVolumeClaim~my&#45;pvc -->
<g id="edge2" class="edge">
<title>v1.Pod~my&#45;pod&#45;&gt;v1.PersistentVolumeClaim~my&#45;pvc</title>
<path fill="none" stroke="#000000" d="M179.9362,-303C129.0683,-303 68.5,-303 68.5,-303 68.5,-303 68.5,-176.1726 68.5,-176.1726"/>
<polygon fill="#000000" stroke="#000000" points="72.0001,-176.1725 68.5,-166.1726 65.0001,-176.1726 72.0001,-176.1725"/>
</g>
<!-- v1.ConfigMap~my&#45;cm -->
<g id="node3" class="node">
<title>v1.ConfigMap~my&#45;cm</title>
<image xlink:href="icons/cm.svg" width="137px" height="134.314px" preserveAspectRatio="xMinYMin meet" x="180" y="-150.157"/>
<text text-anchor="middle" x="248.5" y="-3.9" font-family="Times,serif" font-size="13.00" fill="#000000">my&#45;cm</text>
</g>
<!-- v1.Pod~my&#45;pod&#45;&gt;v1.ConfigMap~my&#45;cm -->
<g id="edge1" class="edge">
<title>v1.Pod~my&#45;pod&#45;&gt;v1.ConfigMap~my&#45;cm</title>
<path fill="none" stroke="#000000" d="M248.5,-219.8274C248.5,-219.8274 248.5,-176.2902 248.5,-176.2902"/>
<polygon fill="#000000" stroke="#000000" points="252.0001,-176.2901 248.5,-166.2902 245.0001,-176.2902 252.0001,-176.2901"/>
</g>
<!-- v1.Secret~my&#45;secret -->
<g id="node4" class="node">
<title>v1.Secret~my&#45;secret</title>
<image xlink:href="icons/secret.svg" width="137px" height="134.314px" preserveAspectRatio="xMinYMin meet" x="360" y="-150.157"/>
<text text-anchor="middle" x="428.5" y="-3.9" font-family="Times,serif" font-size="13.00" fill="#000000">my&#45;secret</text>
</g>
<!-- v1.Pod~my&#45;pod&#45;&gt;v1.Secret~my&#45;secret -->
<g id="edge3" class="edge">
<title>v1.Pod~my&#45;pod&#45;&gt;v1.Secret~my&#45;secret</title>
<path fill="none" stroke="#000000" d="M317.0638,-303C367.9317,-303 428.5,-303 428.5,-303 428.5,-303 428.5,-176.1726 428.5,-176.1726"/>
<polygon fill="#000000" stroke="#000000" points="432.0001,-176.1725 428.5,-166.1726 425.0001,-176.1726 432.0001,-176.1725"/>
</g>
</g>
</svg>
